<svg width="245" height="137" viewBox="0 0 245 137" fill="none" xmlns="http://www.w3.org/2000/svg">
<path d="M198.88 31.2928C188.904 31.2928 178.584 35.3224 169.16 44.4855C162.244 14.8362 142.158 0 122.073 0C101.989 0 81.9016 14.8362 74.9857 44.4855C65.5577 35.3224 55.244 31.2928 45.2654 31.2928C25.9589 31.2928 7.92128 46.3538 0 68.3264C24.3136 68.394 47.3172 83.6349 61.5559 109.119C68.7931 122.064 73.1444 136.697 74.5134 151.848C75.9269 150.385 77.3793 148.989 78.8894 147.661C91.4597 136.562 106.394 130.686 122.073 130.686C137.752 130.686 152.686 136.562 165.258 147.661C166.768 148.989 168.221 150.385 169.636 151.848C171.003 136.697 175.356 122.064 182.59 109.119C196.834 83.6349 219.836 68.394 244.15 68.3264C236.226 46.3538 218.189 31.2928 198.88 31.2928Z" fill="black"/>
</svg>
