<svg width="405" height="575" viewBox="0 0 405 575" fill="none" xmlns="http://www.w3.org/2000/svg">
<g opacity="0.05" clip-path="url(#clip0_91_857)">
<path d="M117.5 71.875C101.83 71.875 86.5512 73.5464 71.831 76.7207L101.516 213.727C106.668 212.616 112.016 212.031 117.5 212.031C122.984 212.031 128.332 212.616 133.484 213.727L163.169 76.7207C148.449 73.5464 133.169 71.875 117.5 71.875Z" fill="black"/>
<path d="M171.328 234.603C171.016 234.286 170.701 233.971 170.384 233.659C166.641 229.981 162.609 226.772 158.363 224.032L234.251 106.164C246.904 114.328 258.89 123.95 269.97 135.03C281.05 146.11 290.672 158.096 298.836 170.749L180.968 246.637C178.224 242.386 175.011 238.35 171.328 234.603Z" fill="black"/>
<path d="M191.273 271.516C192.314 276.346 192.893 281.348 192.962 286.473C192.966 286.815 192.969 287.157 192.969 287.5C192.969 292.984 192.384 298.332 191.273 303.484L328.279 333.169C331.453 318.449 333.125 303.169 333.125 287.5C333.125 271.83 331.453 256.551 328.279 241.831L191.273 271.516Z" fill="black"/>
<path d="M133.484 361.273C128.332 362.384 122.984 362.969 117.5 362.969C112.016 362.969 106.668 362.384 101.516 361.273L71.831 498.279C86.5512 501.454 101.83 503.125 117.5 503.125C133.169 503.125 148.449 501.454 163.169 498.279L133.484 361.273Z" fill="black"/>
<path d="M43.7272 303.484C42.6162 298.332 42.0312 292.984 42.0312 287.5C42.0312 287.5 42.0312 287.5 42.0312 287.5C42.0312 287.157 42.0335 286.815 42.038 286.473C42.1064 281.348 42.6856 276.346 43.7272 271.516L-93.2793 241.831C-96.4497 256.534 -98.1209 271.793 -98.125 287.443V287.557C-98.1209 303.207 -96.4497 318.467 -93.2793 333.169L43.7272 303.484Z" fill="black"/>
<path d="M64.9281 233.354C64.3973 233.87 63.874 234.393 63.3585 234.924C59.8059 238.58 56.6972 242.507 54.0323 246.637L-63.8363 170.749C-55.6999 158.139 -46.1156 146.192 -35.0832 135.143L-34.8568 134.917C-23.8083 123.885 -11.861 114.3 0.749218 106.164L76.6372 224.032C72.5086 226.696 68.583 229.804 64.9281 233.354Z" fill="black"/>
<path d="M298.836 404.251C290.672 416.904 281.05 428.89 269.97 439.97C258.89 451.05 246.904 460.672 234.251 468.836L158.363 350.968C162.791 348.11 166.986 344.742 170.864 340.864C174.742 336.986 178.11 332.791 180.968 328.363L298.836 404.251Z" fill="black"/>
<path d="M0.749226 468.836C-11.9041 460.672 -23.8899 451.05 -34.9699 439.97C-46.05 428.89 -55.6721 416.904 -63.8362 404.251L54.0323 328.363C56.8897 332.791 60.2575 336.986 64.1355 340.864C68.0135 344.742 72.2085 348.11 76.6372 350.968L0.749226 468.836Z" fill="black"/>
<circle cx="117.5" cy="287.5" r="70.0781" fill="black"/>
</g>
<defs>
<clipPath id="clip0_91_857">
<rect width="575" height="575" fill="white" transform="translate(-170)"/>
</clipPath>
</defs>
</svg>
